<?xml version="1.0" encoding="utf-8"?>
<!-- Generator: Adobe Illustrator 22.1.0, SVG Export Plug-In . SVG Version: 6.00 Build 0)  -->
<svg version="1.1" id="Слой_1" xmlns="http://www.w3.org/2000/svg" xmlns:xlink="http://www.w3.org/1999/xlink" x="0px" y="0px"
	 viewBox="0 0 300 200" style="enable-background:new 0 0 300 200;" xml:space="preserve">
<style type="text/css">
	.st0{fill:#656565;}
	.st1{fill:#D6D6D6;}
	.st2{fill:url(#path5771_4_);}
	.st3{fill:#929292;}
	.st4{fill:url(#path5775_4_);}
	.st5{fill:url(#path5777_4_);}
	.st6{fill:#F1F1F1;}
	.st7{fill:url(#rect5781_4_);}
	.st8{fill:none;stroke:#000000;stroke-width:1.5;}
	.st9{font-family:'MyriadPro-Regular';}
	.st10{font-size:42.5705px;}
	.st11{font-size:21.7289px;}
	.st12{fill:url(#path5771_5_);}
	.st13{fill:url(#path5775_5_);}
	.st14{fill:url(#path5777_5_);}
	.st15{fill:url(#rect5781_5_);}
	.st16{fill:url(#path5771_6_);}
	.st17{fill:url(#path5775_6_);}
	.st18{fill:url(#path5777_6_);}
	.st19{fill:url(#rect5781_6_);}
	.st20{fill:url(#path5771_7_);}
	.st21{fill:url(#path5775_7_);}
	.st22{fill:url(#path5777_7_);}
	.st23{fill:url(#rect5781_7_);}
</style>
<g>
	<g id="layer2" transform="translate(115.62417,74.248815)">
		<path id="rect5767" class="st0" d="M-3.4-70.8h76c4.8,0,8.6,3.3,8.6,7.3v79.7c0,4-3.9,7.3-8.6,7.3h-76c-4.8,0-8.6-3.3-8.6-7.3
			v-79.7C-12.1-67.6-8.2-70.8-3.4-70.8z"/>
		<rect id="rect5769" x="60.7" y="-63.8" class="st1" width="20.4" height="62.6"/>
		
			<linearGradient id="path5771_4_" gradientUnits="userSpaceOnUse" x1="-5802.6289" y1="-2498.3269" x2="-5808.1162" y2="-2521.1912" gradientTransform="matrix(0.2087 0 0 0.208 1279.8262 455.7715)">
			<stop  offset="0" style="stop-color:#D6D6D6"/>
			<stop  offset="1" style="stop-color:#656565"/>
		</linearGradient>
		<path id="path5771" class="st2" d="M64.6-58.4l16.5-5.4c-0.7-5.2-4.2-7-9.2-7.1c-6.6,0.2-13,0.5-16.5,2.4L64.6-58.4z"/>
		<rect id="rect5773" x="4.4" y="-0.1" class="st3" width="60.6" height="23.5"/>
		
			<linearGradient id="path5775_4_" gradientUnits="userSpaceOnUse" x1="6910.5664" y1="-2163.0471" x2="6946.8662" y2="-2134.6934" gradientTransform="matrix(-0.2087 0 0 0.208 1514.8756 455.7715)">
			<stop  offset="0" style="stop-color:#D6D6D6"/>
			<stop  offset="1" style="stop-color:#939393"/>
		</linearGradient>
		<path id="path5775" class="st4" d="M61.5-5.6l19.6,2.1l0.1,19c0,4.9-3.9,7.7-8,7.9l-8.7-0.1L54.8,1L61.5-5.6z"/>
		
			<linearGradient id="path5777_4_" gradientUnits="userSpaceOnUse" x1="-6163.9297" y1="-2162.1584" x2="-6122.4575" y2="-2133.8064" gradientTransform="matrix(0.2087 0 0 0.208 1279.8262 455.7715)">
			<stop  offset="0" style="stop-color:#656565"/>
			<stop  offset="1" style="stop-color:#939393"/>
		</linearGradient>
		<path id="path5777" class="st5" d="M1.5-5.8L-12-3.5l-0.1,19c0,4.9,3.9,7.7,8,7.9l8.7-0.1L7.6,1.1L1.5-5.8z"/>
		<path id="rect5779" class="st6" d="M8.8-69.6h48.9c4.8,0,8.6,3.9,8.6,8.6v55.7c0,4.8-3.9,8.6-8.6,8.6H8.8C4,3.3,0.2-0.6,0.2-5.4
			V-61C0.2-65.8,4-69.6,8.8-69.6z"/>
		
			<linearGradient id="rect5781_4_" gradientUnits="userSpaceOnUse" x1="-6165.8535" y1="-2193.2468" x2="-6027.2368" y2="-2193.2468" gradientTransform="matrix(0.2087 0 0 0.208 1306.5568 423.0099)">
			<stop  offset="0" style="stop-color:#D8D8D8"/>
			<stop  offset="1" style="stop-color:#B1B1B1"/>
		</linearGradient>
		<path id="rect5781" class="st7" d="M8.8-69.6h47c4.8,0,8.6,3.9,8.6,8.6v55.7c0,4.8-3.9,8.6-8.6,8.6h-47C4,3.3,0.2-0.6,0.2-5.4V-61
			C0.2-65.8,4-69.6,8.8-69.6z"/>
		<path id="rect5791" class="st8" d="M-3.4-70.8h76c4.8,0,8.6,3.3,8.6,7.3v79.7c0,4-3.9,7.3-8.6,7.3h-76c-4.8,0-8.6-3.3-8.6-7.3
			v-79.7C-12.1-67.6-8.2-70.8-3.4-70.8z"/>
	</g>
	<text transform="matrix(1 0 0 1 123.2515 45.2676)" class="st9 st10">W</text>
	<text transform="matrix(1 0 0 1 117.7437 68.457)" class="st9 st11">Rotate</text>
	<g id="layer2_1_" transform="translate(115.62417,74.248815)">
		<path id="rect5767_1_" class="st0" d="M-106.7,28.8h76c4.8,0,8.6,3.3,8.6,7.3v79.7c0,4-3.9,7.3-8.6,7.3h-76
			c-4.8,0-8.6-3.3-8.6-7.3V36C-115.3,32-111.4,28.8-106.7,28.8z"/>
		<rect id="rect5769_1_" x="-42.5" y="35.8" class="st1" width="20.4" height="62.6"/>
		
			<linearGradient id="path5771_5_" gradientUnits="userSpaceOnUse" x1="-6297.1787" y1="-2019.524" x2="-6302.666" y2="-2042.3883" gradientTransform="matrix(0.2087 0 0 0.208 1279.8262 455.7715)">
			<stop  offset="0" style="stop-color:#D6D6D6"/>
			<stop  offset="1" style="stop-color:#656565"/>
		</linearGradient>
		<path id="path5771_1_" class="st12" d="M-38.6,41.2l16.5-5.4c-0.7-5.2-4.2-7-9.2-7.1c-6.6,0.2-13,0.5-16.5,2.4L-38.6,41.2z"/>
		<rect id="rect5773_1_" x="-98.8" y="99.5" class="st3" width="60.6" height="23.5"/>
		
			<linearGradient id="path5775_5_" gradientUnits="userSpaceOnUse" x1="7405.1157" y1="-1684.2443" x2="7441.416" y2="-1655.8905" gradientTransform="matrix(-0.2087 0 0 0.208 1514.8756 455.7715)">
			<stop  offset="0" style="stop-color:#D6D6D6"/>
			<stop  offset="1" style="stop-color:#939393"/>
		</linearGradient>
		<path id="path5775_1_" class="st13" d="M-41.7,94l19.6,2.1l0.1,19c0,4.9-3.9,7.7-8,7.9l-8.7-0.1l-9.6-22.4L-41.7,94z"/>
		
			<linearGradient id="path5777_5_" gradientUnits="userSpaceOnUse" x1="-6658.479" y1="-1683.3557" x2="-6617.0068" y2="-1655.0034" gradientTransform="matrix(0.2087 0 0 0.208 1279.8262 455.7715)">
			<stop  offset="0" style="stop-color:#656565"/>
			<stop  offset="1" style="stop-color:#939393"/>
		</linearGradient>
		<path id="path5777_1_" class="st14" d="M-101.7,93.8l-13.6,2.3l-0.1,19c0,4.9,3.9,7.7,8,7.9l8.7-0.1l3.1-22.3L-101.7,93.8z"/>
		<path id="rect5779_1_" class="st6" d="M-94.4,30h48.9c4.8,0,8.6,3.9,8.6,8.6v55.7c0,4.8-3.9,8.6-8.6,8.6h-48.9
			c-4.8,0-8.6-3.9-8.6-8.6V38.6C-103,33.8-99.2,30-94.4,30z"/>
		
			<linearGradient id="rect5781_5_" gradientUnits="userSpaceOnUse" x1="-6660.4028" y1="-1714.444" x2="-6521.7866" y2="-1714.444" gradientTransform="matrix(0.2087 0 0 0.208 1306.5568 423.0099)">
			<stop  offset="0" style="stop-color:#D8D8D8"/>
			<stop  offset="1" style="stop-color:#B1B1B1"/>
		</linearGradient>
		<path id="rect5781_1_" class="st15" d="M-94.4,30h47c4.8,0,8.6,3.9,8.6,8.6v55.7c0,4.8-3.9,8.6-8.6,8.6h-47
			c-4.8,0-8.6-3.9-8.6-8.6V38.6C-103,33.8-99.2,30-94.4,30z"/>
		<path id="rect5791_1_" class="st8" d="M-106.7,28.8h76c4.8,0,8.6,3.3,8.6,7.3v79.7c0,4-3.9,7.3-8.6,7.3h-76
			c-4.8,0-8.6-3.3-8.6-7.3V36C-115.3,32-111.4,28.8-106.7,28.8z"/>
	</g>
	<text transform="matrix(1 0 0 1 20.0396 144.8594)" class="st9 st10">A</text>
	<text transform="matrix(1 0 0 1 14.5308 168.0479)" class="st9 st11">Left</text>
	<g id="layer2_2_" transform="translate(115.62417,74.248815)">
		<path id="rect5767_2_" class="st0" d="M-3.4,28.8h76c4.8,0,8.6,3.3,8.6,7.3v79.7c0,4-3.9,7.3-8.6,7.3h-76c-4.8,0-8.6-3.3-8.6-7.3
			V36C-12.1,32-8.2,28.8-3.4,28.8z"/>
		<rect id="rect5769_2_" x="60.7" y="35.8" class="st1" width="20.4" height="62.6"/>
		
			<linearGradient id="path5771_6_" gradientUnits="userSpaceOnUse" x1="-5802.6289" y1="-2019.524" x2="-5808.1162" y2="-2042.3883" gradientTransform="matrix(0.2087 0 0 0.208 1279.8262 455.7715)">
			<stop  offset="0" style="stop-color:#D6D6D6"/>
			<stop  offset="1" style="stop-color:#656565"/>
		</linearGradient>
		<path id="path5771_2_" class="st16" d="M64.6,41.2l16.5-5.4c-0.7-5.2-4.2-7-9.2-7.1c-6.6,0.2-13,0.5-16.5,2.4L64.6,41.2z"/>
		<rect id="rect5773_2_" x="4.4" y="99.5" class="st3" width="60.6" height="23.5"/>
		
			<linearGradient id="path5775_6_" gradientUnits="userSpaceOnUse" x1="6910.5664" y1="-1684.2443" x2="6946.8662" y2="-1655.8905" gradientTransform="matrix(-0.2087 0 0 0.208 1514.8756 455.7715)">
			<stop  offset="0" style="stop-color:#D6D6D6"/>
			<stop  offset="1" style="stop-color:#939393"/>
		</linearGradient>
		<path id="path5775_2_" class="st17" d="M61.5,94l19.6,2.1l0.1,19c0,4.9-3.9,7.7-8,7.9l-8.7-0.1l-9.6-22.4L61.5,94z"/>
		
			<linearGradient id="path5777_6_" gradientUnits="userSpaceOnUse" x1="-6163.9297" y1="-1683.3557" x2="-6122.4575" y2="-1655.0034" gradientTransform="matrix(0.2087 0 0 0.208 1279.8262 455.7715)">
			<stop  offset="0" style="stop-color:#656565"/>
			<stop  offset="1" style="stop-color:#939393"/>
		</linearGradient>
		<path id="path5777_2_" class="st18" d="M1.5,93.8L-12,96.1l-0.1,19c0,4.9,3.9,7.7,8,7.9l8.7-0.1l3.1-22.3L1.5,93.8z"/>
		<path id="rect5779_2_" class="st6" d="M8.8,30h48.9c4.8,0,8.6,3.9,8.6,8.6v55.7c0,4.8-3.9,8.6-8.6,8.6H8.8c-4.8,0-8.6-3.9-8.6-8.6
			V38.6C0.2,33.8,4,30,8.8,30z"/>
		
			<linearGradient id="rect5781_6_" gradientUnits="userSpaceOnUse" x1="-6165.8535" y1="-1714.444" x2="-6027.2368" y2="-1714.444" gradientTransform="matrix(0.2087 0 0 0.208 1306.5568 423.0099)">
			<stop  offset="0" style="stop-color:#D8D8D8"/>
			<stop  offset="1" style="stop-color:#B1B1B1"/>
		</linearGradient>
		<path id="rect5781_2_" class="st19" d="M8.8,30h47c4.8,0,8.6,3.9,8.6,8.6v55.7c0,4.8-3.9,8.6-8.6,8.6h-47c-4.8,0-8.6-3.9-8.6-8.6
			V38.6C0.2,33.8,4,30,8.8,30z"/>
		<path id="rect5791_2_" class="st8" d="M-3.4,28.8h76c4.8,0,8.6,3.3,8.6,7.3v79.7c0,4-3.9,7.3-8.6,7.3h-76c-4.8,0-8.6-3.3-8.6-7.3
			V36C-12.1,32-8.2,28.8-3.4,28.8z"/>
	</g>
	<text transform="matrix(1 0 0 1 123.2515 144.8594)" class="st9 st10">S</text>
	<text transform="matrix(1 0 0 1 117.7437 168.0479)" class="st9 st11">Down</text>
	<g id="layer2_3_" transform="translate(115.62417,74.248815)">
		<path id="rect5767_3_" class="st0" d="M99.8,28.8h76c4.8,0,8.6,3.3,8.6,7.3v79.7c0,4-3.9,7.3-8.6,7.3h-76c-4.8,0-8.6-3.3-8.6-7.3
			V36C91.1,32,95,28.8,99.8,28.8z"/>
		<rect id="rect5769_3_" x="163.9" y="35.8" class="st1" width="20.4" height="62.6"/>
		
			<linearGradient id="path5771_7_" gradientUnits="userSpaceOnUse" x1="-5308.0796" y1="-2019.524" x2="-5313.5669" y2="-2042.3883" gradientTransform="matrix(0.2087 0 0 0.208 1279.8262 455.7715)">
			<stop  offset="0" style="stop-color:#D6D6D6"/>
			<stop  offset="1" style="stop-color:#656565"/>
		</linearGradient>
		<path id="path5771_3_" class="st20" d="M167.8,41.2l16.5-5.4c-0.7-5.2-4.2-7-9.2-7.1c-6.6,0.2-13,0.5-16.5,2.4L167.8,41.2z"/>
		<rect id="rect5773_3_" x="107.6" y="99.5" class="st3" width="60.6" height="23.5"/>
		
			<linearGradient id="path5775_7_" gradientUnits="userSpaceOnUse" x1="6416.0171" y1="-1684.2443" x2="6452.3169" y2="-1655.8905" gradientTransform="matrix(-0.2087 0 0 0.208 1514.8756 455.7715)">
			<stop  offset="0" style="stop-color:#D6D6D6"/>
			<stop  offset="1" style="stop-color:#939393"/>
		</linearGradient>
		<path id="path5775_3_" class="st21" d="M164.7,94l19.6,2.1l0.1,19c0,4.9-3.9,7.7-8,7.9l-8.7-0.1l-9.6-22.4L164.7,94z"/>
		
			<linearGradient id="path5777_7_" gradientUnits="userSpaceOnUse" x1="-5669.3799" y1="-1683.3557" x2="-5627.9077" y2="-1655.0034" gradientTransform="matrix(0.2087 0 0 0.208 1279.8262 455.7715)">
			<stop  offset="0" style="stop-color:#656565"/>
			<stop  offset="1" style="stop-color:#939393"/>
		</linearGradient>
		<path id="path5777_3_" class="st22" d="M104.7,93.8l-13.6,2.3l-0.1,19c0,4.9,3.9,7.7,8,7.9l8.7-0.1l3.1-22.3L104.7,93.8z"/>
		<path id="rect5779_3_" class="st6" d="M112,30h48.9c4.8,0,8.6,3.9,8.6,8.6v55.7c0,4.8-3.9,8.6-8.6,8.6H112c-4.8,0-8.6-3.9-8.6-8.6
			V38.6C103.4,33.8,107.3,30,112,30z"/>
		
			<linearGradient id="rect5781_7_" gradientUnits="userSpaceOnUse" x1="-5671.3037" y1="-1714.444" x2="-5532.6875" y2="-1714.444" gradientTransform="matrix(0.2087 0 0 0.208 1306.5568 423.0099)">
			<stop  offset="0" style="stop-color:#D8D8D8"/>
			<stop  offset="1" style="stop-color:#B1B1B1"/>
		</linearGradient>
		<path id="rect5781_3_" class="st23" d="M112,30h47c4.8,0,8.6,3.9,8.6,8.6v55.7c0,4.8-3.9,8.6-8.6,8.6h-47c-4.8,0-8.6-3.9-8.6-8.6
			V38.6C103.4,33.8,107.3,30,112,30z"/>
		<path id="rect5791_3_" class="st8" d="M99.8,28.8h76c4.8,0,8.6,3.3,8.6,7.3v79.7c0,4-3.9,7.3-8.6,7.3h-76c-4.8,0-8.6-3.3-8.6-7.3
			V36C91.1,32,95,28.8,99.8,28.8z"/>
	</g>
	<text transform="matrix(1 0 0 1 226.4648 144.8594)" class="st9 st10">D</text>
	<text transform="matrix(1 0 0 1 220.9551 168.0479)" class="st9 st11">Right</text>
</g>
</svg>
