<svg id="development_svg" xmlns="http://www.w3.org/2000/svg" viewBox="0 0 319.59 229.55">
                            <defs>
                                <style>


                                    #development_svg .cls-1 {
                                        fill: #006898;

                                    }

                                    #development_svg #testt {


                                        animation: spin 9.5s linear infinite;
                                    }

                                    #development_svg:hover #testt {

                                    }


                                    @keyframes spin {
                                        0% {
                                            transform: translate(-94.1px, -140.1px);
                                        }
                                        10% {
                                            transform: translate(-109.53px, -124.58px) rotate(-4.5deg);
                                        }
                                        20% {
                                            transform: translate(-123.3px, -107.9px) rotate(-9deg);
                                        }
                                        30% {
                                            transform: translate(-135.9px, -89.95px) rotate(-13.5deg);
                                        }
                                        40% {
                                            transform: translate(-146.8px, -71.3px) rotate(-18deg);

                                        }
                                        50% {
                                            transform: translate(-156.3px, -51.6px) rotate(-22.5deg);
                                        }
                                        60% {
                                            transform: translate(-164.3px, -31.4px) rotate(-27deg);
                                        }
                                        70% {
                                            transform: translate(-170.6px, -10.66px) rotate(-31.5deg);
                                        }
                                        80% {
                                            transform: translate(-175.3px, 10.56px) rotate(-36deg);
                                        }
                                        90% {
                                            transform: translate(-178.3px, 32.1px) rotate(-40.5deg);
                                        }
                                        100% {

                                            transform: translate(-179.4px, 54.1px) rotate(-45deg);
                                        }


                                    }

                                    @keyframes gear_lit {
                                        0% {
                                            transform: translate(-95.53px, -139.58px);
                                        }
                                        10% {
                                            transform: translate(-79.13px, -148.58px) rotate(4.5deg);
                                        }
                                        20% {
                                            transform: translate(-61.73px, -156.18px) rotate(9deg);
                                        }
                                        30% {
                                            transform: translate(-43.53px, -162.18px) rotate(13.5deg);
                                        }
                                        40% {
                                            transform: translate(-25.153px, -166.9px) rotate(18deg);

                                        }
                                        50% {
                                            transform: translate(-6.3px, -170.18px) rotate(22.5deg);
                                        }
                                        60% {
                                            transform: translate(12.97px, -172.001px) rotate(27deg);
                                        }
                                        70% {
                                            transform: translate(31.97px, -172.18px) rotate(31.5deg);
                                        }
                                        80% {
                                            transform: translate(51.07px, -170.89px) rotate(36deg);
                                        }
                                        90% {
                                            transform: translate(69.97px, -168px) rotate(40.5deg);
                                        }
                                        100% {
                                            transform: translate(88.79px, -163.8px) rotate(45deg);
                                        }


                                    }

                                    @keyframes gear_org {
                                        0% {
                                            transform: translate(-94.53px, -140.58px);
                                        }
                                        10% {
                                            transform: translate(-115.53px, -127.5px) rotate(-4.5deg);
                                        }
                                        20% {
                                            transform: translate(-134.53px, -113.9px) rotate(-9deg);
                                        }
                                        30% {
                                            transform: translate(-152.7px, -98.58px) rotate(-13.5deg);
                                        }
                                        40% {
                                            transform: translate(-169.3px, -81.99px) rotate(-18deg);

                                        }
                                        50% {
                                            transform: translate(-184.53px, -64px) rotate(-22.5deg);
                                        }
                                        60% {
                                            transform: translate(-198.53px, -44.8px) rotate(-27deg);
                                        }
                                        70% {
                                            transform: translate(-210.993px, -24.8px) rotate(-31.5deg);
                                        }
                                        80% {
                                            transform: translate(-221.53px, -3.58px) rotate(-36deg);
                                        }
                                        90% {
                                            transform: translate(-230.53px, 18.42px) rotate(-40.5deg);
                                        }
                                        100% {
                                            transform: translate(-237.53px, 41.1px) rotate(-45deg);
                                        }


                                    }

                                    #gear_littel {
                                        animation: gear_lit 6s linear infinite;

                                    }

                                    #gear_org {
                                        animation: gear_org 5s linear infinite;
                                    }

                                    #development_svg .cls-2 {
                                        fill: #243762;
                                    }

                                    #development_svg .cls-3 {
                                        fill: #ecf1f7;
                                    }

                                    #development_svg .cls-4 {
                                        fill: none;
                                        stroke: #243762;
                                        stroke-linecap: round;
                                        stroke-miterlimit: 10;
                                    }

                                    #development_svg .cls-5 {
                                        fill: #e7a21d;
                                    }

                                    #development_svg .cls-10, #development_svg .cls-6 {
                                        fill: #fff;
                                    }

                                    #development_svg .cls-6 {
                                        opacity: 0.53;
                                    }

                                    #development_svg .cls-7, #development_svg .cls-8 {
                                        fill: #2f2f2f;
                                    }

                                    #development_svg .cls-8, #development_svg .cls-9 {
                                        opacity: 0.29;
                                    }

                                    #development_svg .circle_1 {
                                        animation-duration: 1s;

                                        animation-name: circle_1;
                                        animation-fill-mode: forwards;
                                        animation-timing-function: linear;
                                        animation-iteration-count: infinite;
                                    }

                                    @keyframes circle_1 {
                                        0% {
                                            transform: translate(210.9px, 33px) scale(1);
                                        }

                                        50% {
                                            transform: translate(210.9px, 33px) scale(.8);
                                        }
                                        100% {
                                            transform: translate(210.9px, 33px) scale(1);
                                        }
                                    }

                                    #development_svg .circle_2 {
                                        animation-duration: 1s;

                                        animation-name: circle_2;
                                        animation-fill-mode: forwards;
                                        animation-timing-function: linear;
                                        animation-iteration-count: infinite;
                                    }

                                    @keyframes circle_2 {
                                        0% {
                                            transform: translate(121.95px, 135.1px) scale(1);
                                        }

                                        50% {
                                            transform: translate(121.95px, 135.1px) scale(.8);
                                        }
                                        100% {
                                            transform: translate(121.95px, 135.1px) scale(1);
                                        }
                                    }

                                </style>
                            </defs>
                            <title>computer</title>
                            <g id="OBJECTS">
                                <path class="cls-1" id="testt"
                                      d="M221,233.3l-3.89-6.07a37,37,0,0,0,9-13l7,1.54A6.61,6.61,0,0,0,236,202.87l-7-1.54a37,37,0,0,0-2.79-15.57l6.06-3.89a6.61,6.61,0,0,0,2-9.14h0a6.62,6.62,0,0,0-9.14-2l-6.06,3.89a37.16,37.16,0,0,0-13-9l1.54-7a6.61,6.61,0,1,0-12.92-2.82l-1.54,7a37,37,0,0,0-15.56,2.8l-3.9-6.07a6.6,6.6,0,0,0-9.13-2h0a6.61,6.61,0,0,0-2,9.14l3.9,6.07a36.9,36.9,0,0,0-9,13l-7.05-1.54a6.61,6.61,0,1,0-2.82,12.92l7,1.54a37.11,37.11,0,0,0,2.8,15.56l-6.07,3.9a6.61,6.61,0,0,0-2,9.13h0a6.62,6.62,0,0,0,9.14,2l6.07-3.89a37.17,37.17,0,0,0,13,9l-1.54,7a6.61,6.61,0,0,0,12.92,2.82l1.54-7a37,37,0,0,0,15.57-2.8l3.89,6.07a6.62,6.62,0,0,0,9.14,2h0A6.62,6.62,0,0,0,221,233.3Zm-51.91-18.78a26.94,26.94,0,1,1,37.22,8.13A26.94,26.94,0,0,1,169.12,214.52Z"
                                />
                                <path class="cls-1" id="gear_littel"
                                      d="M143.39,220.3l-3.3-2.11a20.26,20.26,0,0,0,1.5-8.46l3.82-.85a3.59,3.59,0,1,0-1.54-7l-3.83.84a20,20,0,0,0-4.92-7l2.11-3.31a3.59,3.59,0,0,0-1.09-5h0a3.58,3.58,0,0,0-5,1.1l-2.11,3.3a20.11,20.11,0,0,0-8.46-1.51l-.85-3.82a3.59,3.59,0,1,0-7,1.54l.84,3.83a20.09,20.09,0,0,0-7,4.92l-3.3-2.11a3.59,3.59,0,0,0-5,1.09h0a3.6,3.6,0,0,0,1.09,5l3.31,2.1a20.13,20.13,0,0,0-1.51,8.47l-3.82.84a3.59,3.59,0,1,0,1.54,7l3.83-.85a20.09,20.09,0,0,0,4.92,7.05l-2.11,3.3a3.59,3.59,0,0,0,1.09,5h0a3.59,3.59,0,0,0,5-1.09l2.11-3.3a20.26,20.26,0,0,0,8.46,1.5l.85,3.83a3.59,3.59,0,1,0,7-1.55l-.84-3.83a20.09,20.09,0,0,0,7.05-4.92l3.3,2.11a3.59,3.59,0,0,0,5-1.09h0A3.59,3.59,0,0,0,143.39,220.3Zm-29.89,2.54a14.64,14.64,0,1,1,20.21-4.46A14.64,14.64,0,0,1,113.5,222.84Z"
                                />
                                <path class="cls-1"
                                      d="M318.68,247.21H194.87c-2.26,0-4.09-.23-4.09-.52v-6.57a8.31,8.31,0,0,1,5.09-2.51H318.68c2.26,0,4.08,3.23,4.08,3.51v5.57C322.76,247,320.94,247.21,318.68,247.21Z"
                                      transform="translate(-94.53 -140.58)"/>
                                <path class="cls-2"
                                      d="M322.76,247.71H195.89a.51.51,0,0,1-.5-.5.5.5,0,0,1,.5-.5H322.76a.5.5,0,0,1,.5.5A.5.5,0,0,1,322.76,247.71Z"
                                      transform="translate(-94.53 -140.58)"/>
                                <path class="cls-3"
                                      d="M196.68,244.7a1.48,1.48,0,1,1,1.48-1.48A1.47,1.47,0,0,1,196.68,244.7Zm0-2.45a1,1,0,1,0,1,1A1,1,0,0,0,196.68,242.25Z"
                                      transform="translate(-94.53 -140.58)"/>
                                <path class="cls-3"
                                      d="M201.13,244.7a1.48,1.48,0,1,1,1.48-1.48A1.48,1.48,0,0,1,201.13,244.7Zm0-2.45a1,1,0,1,0,1,1A1,1,0,0,0,201.13,242.25Z"
                                      transform="translate(-94.53 -140.58)"/>
                                <path class="cls-3"
                                      d="M205.35,244.7a1.48,1.48,0,1,1,1.48-1.48A1.48,1.48,0,0,1,205.35,244.7Zm0-2.45a1,1,0,1,0,1,1A1,1,0,0,0,205.35,242.25Z"
                                      transform="translate(-94.53 -140.58)"/>
                                <path class="cls-2"
                                      d="M216.65,276.48a.5.5,0,0,1-.33-.12.51.51,0,0,1,0-.71l13.35-15.52a.5.5,0,1,1,.76.66L217,276.3A.49.49,0,0,1,216.65,276.48Z"
                                      transform="translate(-94.53 -140.58)"/>
                                <path class="cls-2"
                                      d="M225,266.27l1-5.07a.51.51,0,0,1,.59-.4.5.5,0,0,1,.39.59l-.66,3.32,3.49-1.28a.5.5,0,0,1,.64.29.52.52,0,0,1-.3.65Z"
                                      transform="translate(-94.53 -140.58)"/>
                                <path class="cls-2"
                                      d="M227.64,263.34l.76-3.76a.49.49,0,0,1,.59-.39.5.5,0,0,1,.39.59l-.41,2,2.14-.78a.5.5,0,0,1,.64.29.5.5,0,0,1-.3.64Z"
                                      transform="translate(-94.53 -140.58)"/>
                                <path class="cls-4" d="M226.74,259.88" transform="translate(-94.53 -140.58)"/>
                                <path class="cls-5" id="gear_org"
                                      d="M175.55,275.71l-4.14-2.65a25.06,25.06,0,0,0,1.89-10.6l4.79-1.06a4.5,4.5,0,0,0-1.93-8.8l-4.8,1.06a25.32,25.32,0,0,0-6.17-8.84l2.65-4.13a4.51,4.51,0,0,0-1.38-6.22h0a4.5,4.5,0,0,0-6.22,1.37L157.6,240A25.1,25.1,0,0,0,147,238.09l-1.05-4.8a4.51,4.51,0,1,0-8.8,1.94l1.05,4.8a25.28,25.28,0,0,0-8.83,6.17l-4.14-2.65a4.51,4.51,0,0,0-6.22,1.37h0a4.51,4.51,0,0,0,1.37,6.22l4.14,2.65a25.25,25.25,0,0,0-1.88,10.61l-4.8,1.05a4.51,4.51,0,1,0,1.94,8.8l4.8-1.06a25.2,25.2,0,0,0,6.16,8.84l-2.64,4.14a4.5,4.5,0,0,0,1.37,6.22h0a4.51,4.51,0,0,0,6.22-1.37l2.65-4.14a25.2,25.2,0,0,0,10.6,1.88l1.06,4.8a4.51,4.51,0,0,0,8.8-1.94l-1.06-4.8a25.06,25.06,0,0,0,8.83-6.17l4.14,2.65a4.51,4.51,0,0,0,6.22-1.37h0A4.5,4.5,0,0,0,175.55,275.71Zm-37.47,3.18a18.35,18.35,0,1,1,25.35-5.58A18.34,18.34,0,0,1,138.08,278.89Z"
                                      transform="translate(-94.53 -140.58)"/>
                                <rect class="cls-3" x="57.43" y="70.92" width="211.31" height="136.14" rx="6.77"
                                      ry="6.77"/>
                                <path class="cls-6"
                                      d="M345.58,347.64H170.84a6.2,6.2,0,0,1-6-6.39V225.59a6.2,6.2,0,0,1,6-6.39H345.58a6.2,6.2,0,0,1,6,6.39V341.25A6.2,6.2,0,0,1,345.58,347.64Z"
                                      transform="translate(-94.53 -140.58)"/>
                                <path class="cls-2"
                                      d="M318.68,314.31H194.87a4.59,4.59,0,0,1-4.58-4.59v-68a4.59,4.59,0,0,1,4.58-4.59H318.68a4.59,4.59,0,0,1,4.58,4.59v68A4.59,4.59,0,0,1,318.68,314.31ZM194.87,238.1a3.58,3.58,0,0,0-3.58,3.59v68a3.58,3.58,0,0,0,3.58,3.59H318.68a3.58,3.58,0,0,0,3.58-3.59v-68a3.58,3.58,0,0,0-3.58-3.59Z"
                                      transform="translate(-94.53 -140.58)"/>
                                <path class="cls-2"
                                      d="M308.77,260.72H240.63a.5.5,0,0,1-.5-.5.51.51,0,0,1,.5-.5h68.14a.5.5,0,0,1,.5.5A.5.5,0,0,1,308.77,260.72Z"
                                      transform="translate(-94.53 -140.58)"/>
                                <path class="cls-2"
                                      d="M308.77,277.26H240.63a.5.5,0,0,1-.5-.5.51.51,0,0,1,.5-.5h68.14a.5.5,0,0,1,.5.5A.5.5,0,0,1,308.77,277.26Z"
                                      transform="translate(-94.53 -140.58)"/>
                                <path class="cls-2"
                                      d="M308.77,294.74H240.63a.51.51,0,0,1-.5-.5.5.5,0,0,1,.5-.5h68.14a.5.5,0,0,1,.5.5A.5.5,0,0,1,308.77,294.74Z"
                                      transform="translate(-94.53 -140.58)"/>
                                <path class="cls-2"
                                      d="M270.59,268.44h-30a.5.5,0,0,1-.5-.5.51.51,0,0,1,.5-.5h30a.51.51,0,0,1,.5.5A.5.5,0,0,1,270.59,268.44Z"
                                      transform="translate(-94.53 -140.58)"/>
                                <path class="cls-2"
                                      d="M308.77,268.44H278.82a.5.5,0,0,1-.5-.5.5.5,0,0,1,.5-.5h29.95a.5.5,0,0,1,.5.5A.5.5,0,0,1,308.77,268.44Z"
                                      transform="translate(-94.53 -140.58)"/>
                                <path class="cls-2"
                                      d="M270.59,285.91h-30a.5.5,0,0,1-.5-.5.51.51,0,0,1,.5-.5h30a.51.51,0,0,1,.5.5A.5.5,0,0,1,270.59,285.91Z"
                                      transform="translate(-94.53 -140.58)"/>
                                <path class="cls-2"
                                      d="M308.77,285.91H278.82a.5.5,0,0,1-.5-.5.5.5,0,0,1,.5-.5h29.95a.5.5,0,0,1,.5.5A.5.5,0,0,1,308.77,285.91Z"
                                      transform="translate(-94.53 -140.58)"/>
                                <circle class="cls-5 circle_2" cx="0" cy="0" r="15.52"/>

                                <circle class="cls-3" cx="122.12" cy="135.4" r="9.65"/>
                                <path class="cls-5"
                                      d="M221.73,276a5.09,5.09,0,1,1-5.08-5.09A5.07,5.07,0,0,1,221.73,276Z"
                                      transform="translate(-94.53 -140.58)"/>
                                <path class="cls-3"
                                      d="M216.65,278.45a2.48,2.48,0,1,1,2.47-2.47A2.48,2.48,0,0,1,216.65,278.45Zm0-3.95a1.48,1.48,0,1,0,0,2.95,1.48,1.48,0,0,0,0-2.95Z"
                                      transform="translate(-94.53 -140.58)"/>
                                <path class="cls-7"
                                      d="M152,329v11.86a6.77,6.77,0,0,0,6.77,6.77H237v8.08a11.87,11.87,0,0,1-6.65,10.66l-7.66,3.75h68.92l-8.65-4.24a10.09,10.09,0,0,1-5.66-9.07v-9.18h79.24a6.78,6.78,0,0,0,6.78-6.77V329Z"
                                      transform="translate(-94.53 -140.58)"/>
                                <polygon class="cls-8"
                                         points="182.73 207.06 142.43 215.13 142.43 207.06 182.73 207.06 182.73 207.06"/>
                                <path class="cls-3"
                                      d="M257.1,342a4.24,4.24,0,1,1,4.25-4.24A4.24,4.24,0,0,1,257.1,342Zm0-7.73a3.49,3.49,0,1,0,3.5,3.49A3.49,3.49,0,0,0,257.1,334.31Z"
                                      transform="translate(-94.53 -140.58)"/>
                                <path class="cls-3"
                                      d="M257.1,343.82a6,6,0,1,1,6-6A6,6,0,0,1,257.1,343.82Zm0-11.29a5.27,5.27,0,1,0,5.28,5.27A5.28,5.28,0,0,0,257.1,332.53Z"
                                      transform="translate(-94.53 -140.58)"/>
                                <rect class="cls-2" x="59.69" y="78.11" width="206.8" height="1"/>
                                <path class="cls-2"
                                      d="M257.1,217.46a1.83,1.83,0,1,1,1.83-1.83A1.84,1.84,0,0,1,257.1,217.46Zm0-2.65a.83.83,0,1,0,.83.82A.83.83,0,0,0,257.1,214.81Z"
                                      transform="translate(-94.53 -140.58)"/>
                                <g class="cls-9">
                                    <path class="cls-2"
                                          d="M140.84,311.82h-34.7s-2.12,20.47,4,34.82h34.7C138.73,332.29,140.84,311.82,140.84,311.82Z"
                                          transform="translate(-94.53 -140.58)"/>
                                </g>
                                <path class="cls-1"
                                      d="M139.08,310H104.37s-2.11,20.47,4,34.83h34.71C137,330.48,139.08,310,139.08,310Z"
                                      transform="translate(-94.53 -140.58)"/>
                                <path class="cls-2"
                                      d="M104.91,332.18a.51.51,0,0,1-.5-.43,101.28,101.28,0,0,1-.53-21.79l0-.45h22.67a.51.51,0,0,1,.5.5.5.5,0,0,1-.5.5H104.83a100.41,100.41,0,0,0,.57,21.1.5.5,0,0,1-.42.56Z"
                                      transform="translate(-94.53 -140.58)"/>
                                <path class="cls-10"
                                      d="M132.76,320H109.29a.5.5,0,0,1-.5-.5.5.5,0,0,1,.5-.5h23.47a.51.51,0,0,1,.5.5A.5.5,0,0,1,132.76,320Z"
                                      transform="translate(-94.53 -140.58)"/>
                                <path class="cls-10" d="M132.76,324.69H110.29a.5.5,0,0,1,0-1h22.47a.5.5,0,0,1,0,1Z"
                                      transform="translate(-94.53 -140.58)"/>
                                <path class="cls-10"
                                      d="M132.76,329.4H111.29a.5.5,0,0,1-.5-.5.5.5,0,0,1,.5-.5h21.47a.5.5,0,0,1,.5.5A.51.51,0,0,1,132.76,329.4Z"
                                      transform="translate(-94.53 -140.58)"/>
                                <path class="cls-10" d="M132.76,334.22H113.29a.5.5,0,0,1,0-1h19.47a.5.5,0,0,1,0,1Z"
                                      transform="translate(-94.53 -140.58)"/>
                                <path class="cls-2"
                                      d="M345.18,200.81H264.6c-2.33,0-4.22-1.51-4.22-3.36V143.94c0-1.85,1.89-3.36,4.22-3.36h80.58c2.33,0,4.23,1.51,4.23,3.36v53.51C349.41,199.3,347.51,200.81,345.18,200.81ZM264.6,141.58c-1.78,0-3.22,1.06-3.22,2.36v53.51c0,1.3,1.44,2.36,3.22,2.36h80.58c1.78,0,3.23-1.06,3.23-2.36V143.94c0-1.3-1.45-2.36-3.23-2.36Z"
                                      transform="translate(-94.53 -140.58)"/>
                                <circle class="cls-5 circle_1" cx="0" cy="0" r="10.29"
                                />
                                <path class="cls-2"
                                      d="M305.29,188.2a14.63,14.63,0,1,1,14.63-14.63A14.65,14.65,0,0,1,305.29,188.2Zm0-28.26a13.63,13.63,0,1,0,13.63,13.63A13.64,13.64,0,0,0,305.29,159.94Z"
                                      transform="translate(-94.53 -140.58)"/>
                                <path class="cls-2"
                                      d="M304.11,177.61l-4.82-6.67a.5.5,0,1,1,.81-.59l4.13,5.72,18.18-18.18a.5.5,0,0,1,.71.71Z"
                                      transform="translate(-94.53 -140.58)"/>
                                <rect class="cls-2" x="166.35" y="10.9" width="87.5" height="1"/>
                                <path class="cls-2"
                                      d="M267.23,148.9a1.88,1.88,0,1,1,1.89-1.88A1.88,1.88,0,0,1,267.23,148.9Zm0-2.76a.88.88,0,1,0,.89.88A.87.87,0,0,0,267.23,146.14Z"
                                      transform="translate(-94.53 -140.58)"/>
                                <path class="cls-2"
                                      d="M272.42,148.9a1.88,1.88,0,1,1,1.89-1.88A1.88,1.88,0,0,1,272.42,148.9Zm0-2.76a.88.88,0,1,0,.89.88A.88.88,0,0,0,272.42,146.14Z"
                                      transform="translate(-94.53 -140.58)"/>
                                <path class="cls-2"
                                      d="M277.52,148.9A1.88,1.88,0,1,1,279.4,147,1.89,1.89,0,0,1,277.52,148.9Zm0-2.76a.88.88,0,1,0,.88.88A.88.88,0,0,0,277.52,146.14Z"
                                      transform="translate(-94.53 -140.58)"/>
                                <path class="cls-1"
                                      d="M330.66,169.39h66.57a2.12,2.12,0,0,1,2.12,2.12v48.84a3.75,3.75,0,0,1-3.75,3.75H369.92a1.08,1.08,0,0,0-.79.34L347.78,247a1.08,1.08,0,0,1-1.86-.81v-21a1.13,1.13,0,0,0-1.09-1.16H330.66a3.59,3.59,0,0,1-3.48-3.69V173.08A3.59,3.59,0,0,1,330.66,169.39Z"
                                      transform="translate(-94.53 -140.58)"/>
                                <path class="cls-2"
                                      d="M346.42,225.26h-1a.62.62,0,0,0-.59-.66H330.66a4.1,4.1,0,0,1-4-4.19V173.08a4.1,4.1,0,0,1,4-4.19h52.85v1H330.66a3.1,3.1,0,0,0-3,3.19v47.33a3.1,3.1,0,0,0,3,3.19h14.17A1.62,1.62,0,0,1,346.42,225.26Z"
                                      transform="translate(-94.53 -140.58)"/>
                                <path class="cls-10"
                                      d="M389.34,185.78H339.72a.37.37,0,0,1-.37-.38.36.36,0,0,1,.37-.37h49.62a.37.37,0,0,1,.38.37A.38.38,0,0,1,389.34,185.78Z"
                                      transform="translate(-94.53 -140.58)"/>
                                <path class="cls-10" d="M389.34,196.92H367a.38.38,0,0,1,0-.75h22.32a.38.38,0,1,1,0,.75Z"
                                      transform="translate(-94.53 -140.58)"/>
                                <path class="cls-10"
                                      d="M362.72,196.92H340.4a.38.38,0,0,1,0-.75h22.32a.38.38,0,1,1,0,.75Z"
                                      transform="translate(-94.53 -140.58)"/>
                                <path class="cls-10" d="M375.61,207H342.19a.38.38,0,0,1,0-.75h33.42a.38.38,0,0,1,0,.75Z"
                                      transform="translate(-94.53 -140.58)"/>
                                <circle class="cls-5" cx="398.3" cy="173.03" r="11.54"
                                        transform="translate(43.46 380.04) rotate(-76.65)"/>
                                <path class="cls-2"
                                      d="M398.45,188.55a.5.5,0,0,1,0-1,14.66,14.66,0,1,0-14.66-14.66.51.51,0,0,1-.5.5.5.5,0,0,1-.5-.5,15.66,15.66,0,1,1,15.66,15.66Z"
                                      transform="translate(-94.53 -140.58)"/>
                                <path class="cls-10"
                                      d="M398.14,179.31a1.56,1.56,0,0,1-1.09-.4,1.3,1.3,0,0,1-.44-1,1.26,1.26,0,0,1,.44-1,1.61,1.61,0,0,1,1.09-.38,1.57,1.57,0,0,1,1.09.39,1.26,1.26,0,0,1,.42,1,1.29,1.29,0,0,1-.42,1A1.53,1.53,0,0,1,398.14,179.31Zm1.31-10.93-.23,6a1.11,1.11,0,0,1-1.1,1.06h0a1.11,1.11,0,0,1-1.11-1.06l-.22-6a1.11,1.11,0,0,1,1.1-1.14h.46A1.1,1.1,0,0,1,399.45,168.38Z"
                                      transform="translate(-94.53 -140.58)"/>
                            </g>
                        </svg>