<?xml version="1.0" encoding="utf-8"?>
<!-- Generator: Adobe Illustrator 22.1.0, SVG Export Plug-In . SVG Version: 6.00 Build 0)  -->
<svg version="1.1" id="Слой_1" xmlns="http://www.w3.org/2000/svg" xmlns:xlink="http://www.w3.org/1999/xlink" x="0px" y="0px"
	 viewBox="0 0 766.7 529.4" style="enable-background:new 0 0 766.7 529.4;" xml:space="preserve">
<style type="text/css">
	.st0{fill:#394D54;}
	.st1{clip-path:url(#SVGID_2_);}
	.st2{fill:#00ACD3;}
	.st3{fill:#20C2EF;}
	.st4{stroke:#394D54;stroke-width:1.56;}
	.st5{clip-path:url(#SVGID_4_);fill:#17B5EB;}
	.st6{clip-path:url(#SVGID_6_);fill-opacity:0.17;}
	.st7{clip-path:url(#SVGID_8_);fill:#D4EDF1;}
	.st8{clip-path:url(#SVGID_10_);fill-opacity:8.500000e-02;}
	.st9{fill:none;stroke:#394D54;stroke-width:3.4;stroke-linecap:round;}
	.st10{fill:#D4EDF1;}
</style>
<path id="path14" class="st0" d="M402.5,163h77.4v79.1h39.1c18.1,0,36.7-3.2,53.8-9c8.4-2.9,17.9-6.8,26.1-11.8
	c-10.9-14.3-16.5-32.3-18.1-50c-2.2-24.2,2.6-55.6,19-74.5l8.1-9.4l9.7,7.8c24.4,19.6,44.9,47,48.6,78.3c29.4-8.6,63.9-6.6,89.8,8.4
	l10.6,6.1l-5.6,10.9c-21.9,42.8-67.7,56-112.5,53.7c-67,166.9-212.9,246-389.9,246c-91.4,0-175.3-34.2-223-115.3
	c-2.8-5-5.2-10.3-7.7-15.5C11.8,332,6.5,292.9,10.1,253.8l1.1-11.7h66.2V163h77.4V85.6h154.8V8.2h92.9L402.5,163"/>
<g>
	<defs>
		<path id="SVGID_1_" d="M160.5,14.9v155.7H86v77.9H23.7c-0.3,2.3-0.5,4.5-0.7,6.8c-3.9,42.4,3.5,81.5,20.5,115l5.7,10.3
			c3.4,6.2,7.4,11.9,11.6,17.6c4.2,5.6,5.7,8.7,8.4,12.5c45,50.6,112,74.9,189.5,74.9c171.5,0,317-76,381.4-246.6
			c45.7,4.7,89.5-7,109.5-46c-31.8-18.4-72.7-12.5-96.3-0.6l62.4-177.3L472,170.7h-77.9V14.9H160.5z"/>
	</defs>
	<clipPath id="SVGID_2_">
		<use xlink:href="#SVGID_1_"  style="overflow:visible;"/>
	</clipPath>
	<g class="st1">
		<g>
			<g id="g20" transform="translate(0,-22.866)">
				<path id="path22" class="st2" d="M322.5-33.5h67.1v67.1h-67.1L322.5-33.5z"/>
				<path id="path24" class="st3" d="M322.5,43.9h67.1V111h-67.1L322.5,43.9z"/>
				<path id="path26" class="st4" d="M330.8,28v-55.9 M340.8,28v-55.9 M351,28v-55.9 M361.2,28v-55.9 M371.3,28v-55.9 M381.4,28
					v-55.9"/>
				<g id="use28" transform="translate(0,22.866)">
					<path id="path26_1_" class="st4" d="M330.8,105.4V49.5 M340.8,105.4V49.5 M351,105.4V49.5 M361.2,105.4V49.5 M371.3,105.4V49.5
						 M381.4,105.4V49.5"/>
				</g>
			</g>
			<g id="g18">
				<g id="g20_1_" transform="translate(0,-22.866)">
					<path id="path22_1_" class="st2" d="M399.9,111H467V43.9h-67.1L399.9,111z"/>
					<path id="path24_1_" class="st3" d="M399.9,33.6H467v-67.1h-67.1L399.9,33.6z"/>
					<path id="path26_2_" class="st4" d="M408.2,49.5v55.9 M418.2,49.5v55.9 M428.4,49.5v55.9 M438.6,49.5v55.9 M448.7,49.5v55.9
						 M458.8,49.5v55.9"/>
					<g id="use30" transform="matrix(1,0,0,-1,22.866,4.572651)">
						<path id="path26_3_" class="st4" d="M408.2-27.9V28 M418.2-27.9V28 M428.4-27.9V28 M438.6-27.9V28 M448.7-27.9V28 M458.8-27.9
							V28"/>
					</g>
				</g>
			</g>
			<g>
				<g>
					<g id="g20_2_" transform="translate(0,-22.866)">
						<path id="path22_2_" class="st2" d="M12.9,121.3H80v67.1H12.9L12.9,121.3z"/>
						<path id="path24_2_" class="st3" d="M12.9,198.7H80v67.1H12.9L12.9,198.7z"/>
						<path id="path26_4_" class="st4" d="M21.1,182.8v-55.9 M31.2,182.8v-55.9 M41.4,182.8v-55.9 M51.5,182.8v-55.9 M61.7,182.8
							v-55.9 M71.7,182.8v-55.9"/>
						<g id="use28_1_" transform="translate(0,22.866)">
							<path id="path26_5_" class="st4" d="M21.1,260.2v-55.9 M31.2,260.2v-55.9 M41.4,260.2v-55.9 M51.5,260.2v-55.9 M61.7,260.2
								v-55.9 M71.7,260.2v-55.9"/>
						</g>
					</g>
					<g id="g18_1_">
						<g id="g20_3_" transform="translate(0,-22.866)">
							<path id="path22_3_" class="st2" d="M90.3,265.8h67.1v-67.1H90.3L90.3,265.8z"/>
							<path id="path24_3_" class="st3" d="M90.3,188.4h67.1v-67.1H90.3L90.3,188.4z"/>
							<path id="path26_6_" class="st4" d="M98.5,204.3v55.9 M108.6,204.3v55.9 M118.8,204.3v55.9 M128.9,204.3v55.9 M139.1,204.3
								v55.9 M149.2,204.3v55.9"/>
							<g id="use32" transform="translate(-91.464,45.732)">
								<path id="path26_7_" class="st4" d="M98.5,126.9v55.9 M108.6,126.9v55.9 M118.8,126.9v55.9 M128.9,126.9v55.9 M139.1,126.9
									v55.9 M149.2,126.9v55.9"/>
							</g>
						</g>
					</g>
					<g>
						<g>
							<g id="g20_4_" transform="translate(0,-22.866)">
								<path id="path22_4_" class="st2" d="M167.7,121.3h67.1v67.1h-67.1L167.7,121.3z"/>
								<path id="path24_4_" class="st3" d="M167.7,198.7h67.1v67.1h-67.1L167.7,198.7z"/>
								<path id="path26_8_" class="st4" d="M176,182.8v-55.9 M186,182.8v-55.9 M196.2,182.8v-55.9 M206.3,182.8v-55.9 M216.5,182.8
									v-55.9 M226.6,182.8v-55.9"/>
								<g id="use28_2_" transform="translate(0,22.866)">
									<path id="path26_9_" class="st4" d="M176,260.2v-55.9 M186,260.2v-55.9 M196.2,260.2v-55.9 M206.3,260.2v-55.9
										 M216.5,260.2v-55.9 M226.6,260.2v-55.9"/>
								</g>
							</g>
							<g id="g18_2_">
								<g id="g20_5_" transform="translate(0,-22.866)">
									<path id="path22_5_" class="st2" d="M245.1,265.8h67.1v-67.1h-67.1L245.1,265.8z"/>
									<path id="path24_5_" class="st3" d="M245.1,188.4h67.1v-67.1h-67.1L245.1,188.4z"/>
									<path id="path26_10_" class="st4" d="M253.4,204.3v55.9 M263.4,204.3v55.9 M273.6,204.3v55.9 M283.8,204.3v55.9
										 M293.9,204.3v55.9 M304,204.3v55.9"/>
									<g id="use34" transform="translate(-45.732,45.732)">
										<path id="path26_11_" class="st4" d="M253.4,126.9v55.9 M263.4,126.9v55.9 M273.6,126.9v55.9 M283.8,126.9v55.9
											 M293.9,126.9v55.9 M304,126.9v55.9"/>
									</g>
								</g>
							</g>
							<g>
								<g id="g16">
									<g id="g20_6_" transform="translate(0,-22.866)">
										<path id="path22_6_" class="st2" d="M322.5,121.3h67.1v67.1h-67.1L322.5,121.3z"/>
										<path id="path24_6_" class="st3" d="M322.5,198.7h67.1v67.1h-67.1L322.5,198.7z"/>
										<path id="path26_12_" class="st4" d="M330.8,182.8v-55.9 M340.8,182.8v-55.9 M351,182.8v-55.9 M361.2,182.8v-55.9
											 M371.3,182.8v-55.9 M381.4,182.8v-55.9"/>
										<g id="use28_3_" transform="translate(0,22.866)">
											<path id="path26_13_" class="st4" d="M330.8,260.2v-55.9 M340.8,260.2v-55.9 M351,260.2v-55.9 M361.2,260.2v-55.9
												 M371.3,260.2v-55.9 M381.4,260.2v-55.9"/>
										</g>
									</g>
									<g id="g18_3_">
										<g id="g20_7_" transform="translate(0,-22.866)">
											<path id="path22_7_" class="st2" d="M399.9,265.8H467v-67.1h-67.1L399.9,265.8z"/>
											<path id="path24_7_" class="st3" d="M399.9,188.4H467v-67.1h-67.1L399.9,188.4z"/>
											<path id="path26_14_" class="st4" d="M408.2,204.3v55.9 M418.2,204.3v55.9 M428.4,204.3v55.9 M438.6,204.3v55.9
												 M448.7,204.3v55.9 M458.8,204.3v55.9"/>
											<g id="use36" transform="translate(0,45.732)">
												<path id="path26_15_" class="st4" d="M408.2,126.9v55.9 M418.2,126.9v55.9 M428.4,126.9v55.9 M438.6,126.9v55.9
													 M448.7,126.9v55.9 M458.8,126.9v55.9"/>
											</g>
										</g>
									</g>
								</g>
								<g>
									<defs>
										<path id="SVGID_3_" d="M160.5,14.9v155.7H86v77.9H23.7c-0.3,2.3-0.5,4.5-0.7,6.8c-3.9,42.4,3.5,81.5,20.5,115l5.7,10.3
											c3.4,6.2,7.4,11.9,11.6,17.6c4.2,5.6,5.7,8.7,8.4,12.5c45,50.6,112,74.9,189.5,74.9c171.5,0,317-76,381.4-246.6
											c45.7,4.7,89.5-7,109.5-46c-31.8-18.4-72.7-12.5-96.3-0.6l62.4-177.3L472,170.7h-77.9V14.9H160.5z"/>
									</defs>
									<clipPath id="SVGID_4_">
										<use xlink:href="#SVGID_3_"  style="overflow:visible;"/>
									</clipPath>
									<path id="path38" class="st5" d="M653.3,192.2c5.2-40.3-25-72-43.7-87.1c-21.6,24.9-24.9,90.3,8.9,117.8
										c-18.9,16.8-58.7,32-99.4,32H18.3c-4,42.5,0,247.4,0,247.4H753l-3.3-309.5C717.8,174.6,676.9,180.4,653.3,192.2"/>
								</g>
								<g>
									<defs>
										<path id="SVGID_5_" d="M160.5,14.9v155.7H86v77.9H23.7c-0.3,2.3-0.5,4.5-0.7,6.8c-3.9,42.4,3.5,81.5,20.5,115l5.7,10.3
											c3.4,6.2,7.4,11.9,11.6,17.6c4.2,5.6,5.7,8.7,8.4,12.5c45,50.6,112,74.9,189.5,74.9c171.5,0,317-76,381.4-246.6
											c45.7,4.7,89.5-7,109.5-46c-31.8-18.4-72.7-12.5-96.3-0.6l62.4-177.3L472,170.7h-77.9V14.9H160.5z"/>
									</defs>
									<clipPath id="SVGID_6_">
										<use xlink:href="#SVGID_5_"  style="overflow:visible;"/>
									</clipPath>
									<path id="path40" class="st6" d="M18.3,309.5v193H753v-193"/>
								</g>
								<g>
									<defs>
										<path id="SVGID_7_" d="M160.5,14.9v155.7H86v77.9H23.7c-0.3,2.3-0.5,4.5-0.7,6.8c-3.9,42.4,3.5,81.5,20.5,115l5.7,10.3
											c3.4,6.2,7.4,11.9,11.6,17.6c4.2,5.6,5.7,8.7,8.4,12.5c45,50.6,112,74.9,189.5,74.9c171.5,0,317-76,381.4-246.6
											c45.7,4.7,89.5-7,109.5-46c-31.8-18.4-72.7-12.5-96.3-0.6l62.4-177.3L472,170.7h-77.9V14.9H160.5z"/>
									</defs>
									<clipPath id="SVGID_8_">
										<use xlink:href="#SVGID_7_"  style="overflow:visible;"/>
									</clipPath>
									<path id="path42" class="st7" d="M279.8,485.1c-45.8-21.8-71-51.3-85-83.6l-139.2,6.1l71.1,94.8L279.8,485.1"/>
								</g>
								<g>
									<defs>
										<path id="SVGID_9_" d="M160.5,14.9v155.7H86v77.9H23.7c-0.3,2.3-0.5,4.5-0.7,6.8c-3.9,42.4,3.5,81.5,20.5,115l5.7,10.3
											c3.4,6.2,7.4,11.9,11.6,17.6c4.2,5.6,5.7,8.7,8.4,12.5c45,50.6,112,74.9,189.5,74.9c171.5,0,317-76,381.4-246.6
											c45.7,4.7,89.5-7,109.5-46c-31.8-18.4-72.7-12.5-96.3-0.6l62.4-177.3L472,170.7h-77.9V14.9H160.5z"/>
									</defs>
									<clipPath id="SVGID_10_">
										<use xlink:href="#SVGID_9_"  style="overflow:visible;"/>
									</clipPath>
									<path id="path44" class="st8" d="M656.5,190.8v0.1c-70.6,91-171.9,170.6-280.7,212.3c-97,37.3-181.6,37.4-239.9,7.5
										c-6.3-3.5-12.4-7.5-18.6-11.2C74.5,369.6,50.4,320.1,52.4,255H18.3v247.4H753v-325h-84.6L656.5,190.8z"/>
								</g>
								<path id="path46" class="st9" d="M57.7,404.3c48,2.6,99.1,3.1,143.8-10.9"/>
								<path id="path48" class="st10" d="M249.1,370.3c0,10.2-8.3,18.5-18.5,18.5c-10.2,0-18.5-8.3-18.5-18.5
									c0-10.2,8.3-18.5,18.5-18.5C240.8,351.7,249.1,360,249.1,370.3z"/>
								<path id="path50" class="st0" d="M235.4,357.9c-1.6,0.9-2.7,2.7-2.7,4.7c0,3,2.4,5.4,5.4,5.4c2,0,3.8-1.1,4.7-2.8
									c0.6,1.6,1,3.3,1,5.1c0,7.3-5.9,13.3-13.3,13.3c-7.3,0-13.3-5.9-13.3-13.3c0-7.3,5.9-13.3,13.3-13.3
									C232.3,357,233.9,357.3,235.4,357.9z"/>
								<path id="path52" class="st0" d="M-96.8,313.4h861c-18.7-4.8-59.3-11.2-52.6-35.7c-34.1,39.4-116.3,27.7-137,8.2
									c-23.1,33.5-157.6,20.8-167-5.3c-29,34-118.7,34-147.7,0c-9.4,26.1-143.9,38.8-167,5.3c-20.7,19.5-102.9,31.2-137-8.2
									C-37.5,302.2-78,308.6-96.8,313.4"/>
							</g>
						</g>
					</g>
				</g>
			</g>
		</g>
	</g>
</g>
</svg>
